<svg width="265" height="90" viewBox="0 0 265 90" fill="none" xmlns="http://www.w3.org/2000/svg">
<path d="M47 0C62.3444 0 75.9691 7.00092 84.5469 17.8271L79.4727 21.9609C72.3563 12.7237 59.9583 6.23535 47 6.23535C32.8549 6.23535 19.6527 13.9219 12.2197 25H31.7256V24.9785H47.1826C52.358 24.9785 56.847 25.9407 60.6484 27.8643C64.4497 29.7878 67.3579 32.5361 69.373 36.1084C71.4339 39.6807 72.4648 43.8944 72.4648 48.749C72.4648 56.718 70.152 62.7638 65.5264 66.8857C60.9465 70.9619 54.5112 72.9999 46.2217 73H31.7256V31H9V30.8145C7.06386 35.1738 5.98145 39.8806 5.98145 44.7344C5.98145 65.3004 25.3927 83.7764 47 83.7764C68.6071 83.7764 90.1476 65.4162 89.1572 44.7354C88.8723 38.7896 89.5634 39.4375 87.4482 39.4375H73.2061V34.1387H93.2158C93.7228 36.7686 94 41.9668 94 44.7354C93.9997 69.4413 72.9575 89.4697 47 89.4697C21.0425 89.4697 0.000255586 69.4413 0 44.7354C0 20.0293 21.0423 0 47 0ZM38.7324 67.1602H46.1523C52.5642 67.1602 57.3731 65.58 60.5791 62.4199C63.785 59.2598 65.3886 54.7029 65.3887 48.749C65.3887 43.253 63.8086 38.9013 60.6484 35.6953C57.5341 32.4894 53.0684 30.8868 47.252 30.8867H38.7324V67.1602Z" fill="#074097"/>
<path d="M114.821 31.824C117.633 31.824 120.09 32.3813 122.193 33.496C124.295 34.6107 125.917 36.1813 127.057 38.208C128.222 40.2093 128.805 42.5273 128.805 45.162C128.805 47.7713 128.222 50.0893 127.057 52.116C125.917 54.1427 124.283 55.7133 122.155 56.828C120.052 57.9427 117.607 58.5 114.821 58.5H104.827V31.824H114.821ZM114.403 52.876C116.86 52.876 118.773 52.2047 120.141 50.862C121.509 49.5193 122.193 47.6193 122.193 45.162C122.193 42.7047 121.509 40.792 120.141 39.424C118.773 38.056 116.86 37.372 114.403 37.372H111.325V52.876H114.403ZM135.704 35.092C134.564 35.092 133.627 34.7627 132.892 34.104C132.183 33.42 131.828 32.584 131.828 31.596C131.828 30.5827 132.183 29.7467 132.892 29.088C133.627 28.404 134.564 28.062 135.704 28.062C136.819 28.062 137.731 28.404 138.44 29.088C139.175 29.7467 139.542 30.5827 139.542 31.596C139.542 32.584 139.175 33.42 138.44 34.104C137.731 34.7627 136.819 35.092 135.704 35.092ZM138.934 37.296V58.5H132.436V37.296H138.934ZM151.699 36.992C153.194 36.992 154.498 37.296 155.613 37.904C156.753 38.512 157.627 39.31 158.235 40.298V37.296H164.733V58.462C164.733 60.4127 164.34 62.1733 163.555 63.744C162.795 65.34 161.617 66.6067 160.021 67.544C158.45 68.4813 156.487 68.95 154.131 68.95C150.99 68.95 148.444 68.2027 146.493 66.708C144.542 65.2387 143.428 63.2373 143.149 60.704H149.571C149.774 61.5147 150.255 62.148 151.015 62.604C151.775 63.0853 152.712 63.326 153.827 63.326C155.17 63.326 156.234 62.9333 157.019 62.148C157.83 61.388 158.235 60.1593 158.235 58.462V55.46C157.602 56.448 156.728 57.2587 155.613 57.892C154.498 58.5 153.194 58.804 151.699 58.804C149.951 58.804 148.368 58.3607 146.949 57.474C145.53 56.562 144.403 55.2827 143.567 53.636C142.756 51.964 142.351 50.0387 142.351 47.86C142.351 45.6813 142.756 43.7687 143.567 42.122C144.403 40.4753 145.53 39.2087 146.949 38.322C148.368 37.4353 149.951 36.992 151.699 36.992ZM158.235 47.898C158.235 46.2767 157.779 44.9973 156.867 44.06C155.98 43.1227 154.891 42.654 153.599 42.654C152.307 42.654 151.205 43.1227 150.293 44.06C149.406 44.972 148.963 46.2387 148.963 47.86C148.963 49.4813 149.406 50.7733 150.293 51.736C151.205 52.6733 152.307 53.142 153.599 53.142C154.891 53.142 155.98 52.6733 156.867 51.736C157.779 50.7987 158.235 49.5193 158.235 47.898ZM172.702 35.092C171.562 35.092 170.625 34.7627 169.89 34.104C169.181 33.42 168.826 32.584 168.826 31.596C168.826 30.5827 169.181 29.7467 169.89 29.088C170.625 28.404 171.562 28.062 172.702 28.062C173.817 28.062 174.729 28.404 175.438 29.088C176.173 29.7467 176.54 30.5827 176.54 31.596C176.54 32.584 176.173 33.42 175.438 34.104C174.729 34.7627 173.817 35.092 172.702 35.092ZM175.932 37.296V58.5H169.434V37.296H175.932ZM211.798 31.824V58.5H205.3V47.518H195.192V58.5H188.694V31.824H195.192V42.274H205.3V31.824H211.798ZM237.427 37.296V58.5H230.929V55.612C230.27 56.5493 229.371 57.3093 228.231 57.892C227.116 58.4493 225.875 58.728 224.507 58.728C222.885 58.728 221.454 58.3733 220.213 57.664C218.971 56.9293 218.009 55.878 217.325 54.51C216.641 53.142 216.299 51.5333 216.299 49.684V37.296H222.759V48.81C222.759 50.2287 223.126 51.3307 223.861 52.116C224.595 52.9013 225.583 53.294 226.825 53.294C228.091 53.294 229.092 52.9013 229.827 52.116C230.561 51.3307 230.929 50.2287 230.929 48.81V37.296H237.427ZM248.592 40.298C249.2 39.31 250.074 38.512 251.214 37.904C252.354 37.296 253.659 36.992 255.128 36.992C256.876 36.992 258.46 37.4353 259.878 38.322C261.297 39.2087 262.412 40.4753 263.222 42.122C264.058 43.7687 264.476 45.6813 264.476 47.86C264.476 50.0387 264.058 51.964 263.222 53.636C262.412 55.2827 261.297 56.562 259.878 57.474C258.46 58.3607 256.876 58.804 255.128 58.804C253.634 58.804 252.329 58.5127 251.214 57.93C250.1 57.322 249.226 56.524 248.592 55.536V58.5H242.094V30.38H248.592V40.298ZM257.864 47.86C257.864 46.2387 257.408 44.972 256.496 44.06C255.61 43.1227 254.508 42.654 253.19 42.654C251.898 42.654 250.796 43.1227 249.884 44.06C248.998 44.9973 248.554 46.2767 248.554 47.898C248.554 49.5193 248.998 50.7987 249.884 51.736C250.796 52.6733 251.898 53.142 253.19 53.142C254.482 53.142 255.584 52.6733 256.496 51.736C257.408 50.7733 257.864 49.4813 257.864 47.86Z" fill="#074097"/>
</svg>
